#!OML:ASF I:\Actors\actors\Patient Classification 1\Patient 1\Session 1\Subject1.ASF
:FULLY-SPECIFIED
:DEGREES
617
root 0.852601 17.448 8.58076 3.22952 -4.18187 -8.38432
lowerback 0.521345 2.03427 4.70539
upperback -6.3045 3.04329 2.06637
thorax -6.74167 1.30768 -0.659296
lowerneck -4.90429 -10.2609 -6.61237
upperneck 26.561 -15.8466 7.80399
head 10.4672 -7.26096 2.08735
rclavicle -7.60351e-015 -1.39149e-014
rhumerus 21.2247 43.5712 -55.4887
rradius 31.4965
rwrist 68.8566
rhand 39.1691 2.51496
rfingers 7.12502
rthumb 61.7029 -9.34397
lclavicle -7.60351e-015 -1.39149e-014
lhumerus -49.0958 2.3808 88.9509
lradius 88.5225
lwrist 61.1028
lhand -32.3615 16.332
lfingers 7.12502
lthumb -5.59772 46.238
rfemur -3.20001 17.4538 24.9545
rtibia 9.41087
rfoot -12.8779 -20.5112
rtoes -0.445541
lfemur 6.11157 -30.7189 -12.27
ltibia -0.503048
lfoot -13.4332 40.9162
ltoes 0.361083
618
root 0.854038 17.4482 8.57833 3.1053 -4.21556 -8.46925
lowerback 0.62593 2.03567 4.70285
upperback -6.05477 3.0438 2.13328
thorax -6.53794 1.31734 -0.588625
lowerneck -4.71799 -10.5006 -6.80789
upperneck 26.7557 -16.2585 8.01511
head 10.5805 -7.44773 2.14359
rclavicle 9.69075e-015 3.53837e-014
rhumerus 21.747 42.7882 -55.4104
rradius 30.9373
rwrist 69.1231
rhand 39.5062 2.29117
rfingers 7.12502
rthumb 61.9846 -9.22183
lclavicle 9.69075e-015 3.53837e-014
lhumerus -48.9323 2.50331 88.9442
lradius 88.586
lwrist 61.04
lhand -32.3914 16.2387
lfingers 7.12502
lthumb -5.62665 46.144
rfemur -3.18463 17.2697 25.0653
rtibia 9.62342
rfoot -12.8862 -20.2992
rtoes -0.734766
lfemur 6.22173 -30.5834 -12.2187
ltibia -0.458815
lfoot -13.4222 40.7966
ltoes 0.480569
619
root 0.853945 17.4476 8.5725 3.03761 -4.16168 -8.44229
lowerback 0.729064 2.01573 4.57742
upperback -5.83372 3.01033 2.16984
thorax -6.36946 1.31459 -0.479984
lowerneck -4.54757 -10.7158 -6.96308
upperneck 26.9291 -16.6408 8.23328
head 10.6855 -7.61595 2.19909
rclavicle -5.41688e-015 9.14409e-015
rhumerus 21.9204 41.5402 -55.8076
rradius 30.3849
rwrist 69.4315
rhand 40.1209 2.21682
rfingers 7.12502
rthumb 62.4953 -8.64635
lclavicle -5.41688e-015 9.14409e-015
lhumerus -48.7625 2.55543 88.9723
lradius 88.6277
lwrist 61.1175
lhand -32.5336 16.2381
lfingers 7.12502
lthumb -5.76395 46.1397
rfemur -3.25546 17.0874 25.0216
rtibia 9.82419
rfoot -12.8984 -20.2045
rtoes -1.02231
lfemur 6.14255 -30.4226 -12.2007
ltibia -0.339135
lfoot -13.2484 40.5979
ltoes 0.276442
620
root 0.852806 17.4487 8.56528 3.03321 -4.09836 -8.3797
lowerback 0.816573 1.98752 4.37831
upperback -5.64253 2.96421 2.22646
thorax -6.22896 1.30868 -0.308752
lowerneck -4.37146 -10.8691 -7.07968
upperneck 27.1214 -16.9281 8.40346
head 10.781 -7.74124 2.24547
rclavicle 2.56432e-014 3.45885e-014
rhumerus 21.7937 39.8565 -56.689
rradius 29.7761
rwrist 69.5189
rhand 41.1888 2.14946
rfingers 7.12502
rthumb 63.3731 -7.52287
lclavicle 2.56432e-014 3.45885e-014
lhumerus -48.6074 2.61218 89.037
lradius 88.6448
lwrist 61.248
lhand -32.5487 16.1567
lfingers 7.12502
lthumb -5.77847 46.058
rfemur -3.40679 16.9771 24.9123
rtibia 10.0107
rfoot -12.9582 -20.1643
rtoes -1.01389
lfemur 5.97798 -30.3164 -12.1859
ltibia -0.225933
lfoot -13.0331 40.4608
ltoes -0.0724032
621
root 0.852132 17.4491 8.55591 3.04099 -4.04066 -8.3611
lowerback 0.940987 1.94753 4.21041
upperback -5.45933 2.90759 2.30767
thorax -6.11878 1.29534 -0.130131
lowerneck -4.17473 -10.9763 -7.15617
upperneck 27.2882 -17.152 8.57387
head 10.854 -7.83523 2.29654
rclavicle -1.00386e-014 1.17283e-014
rhumerus 21.2985 37.5965 -58.2258
rradius 29.1645
rwrist 69.0177
rhand 43.1806 1.7051
rfingers 7.12502
rthumb 64.9734 -5.51595
lclavicle -1.00386e-014 1.17283e-014
lhumerus -48.469 2.67931 89.0804
lradius 88.6277
lwrist 61.233
lhand -32.4176 16.0913
lfingers 7.12502
lthumb -5.65191 45.9959
rfemur -3.59052 16.8143 24.8406
rtibia 10.2293
rfoot -13.033 -20.0633
rtoes -1.01593
lfemur 5.79564 -30.2024 -12.1077
ltibia -0.106421
lfoot -12.9218 40.3114
ltoes -0.310807
622
root 0.853542 17.4474 8.54529 3.04548 -4.00508 -8.37093
lowerback 1.55286 1.98005 4.27016
upperback -5.60114 2.99757 2.24571
thorax -6.6146 1.32363 -0.25808
lowerneck -3.66022 -11.1356 -7.3103
upperneck 27.5898 -17.5212 8.88632
head 10.9565 -7.99906 2.40864
rclavicle -1.97791e-014 -2.82274e-014
rhumerus 19.6703 34.3063 -61.1311
rradius 28.5823
rwrist 67.3305
rhand 46.8951 0.408741
rfingers 7.12502
rthumb 67.7999 -1.28521
lclavicle -1.97791e-014 -2.82274e-014
lhumerus -48.8915 2.30389 89.03
lradius 88.6912
lwrist 61.1868
lhand -32.2931 16.2442
lfingers 7.12502
lthumb -5.53175 46.152
rfemur -3.76286 16.6276 24.7987
rtibia 10.4418
rfoot -13.0796 -19.9262
rtoes -1.07202
lfemur 5.65654 -30.1387 -12.0286
ltibia -0.0113671
lfoot -12.931 40.2226
ltoes -0.305307
623
root 0.856335 17.4448 8.53362 3.09093 -3.98445 -8.40395
lowerback 1.33279 1.91484 4.10497
upperback -5.16368 2.87654 2.41927
thorax -6.04127 1.29205 0.0358081
lowerneck -3.7324 -11.2748 -7.45785
upperneck 27.6101 -17.7225 8.96368
head 11.0229 -8.09129 2.42372
rclavicle -1.66234e-014 -9.93923e-015
rhumerus 19.3117 30.749 -63.5176
rradius 28.1199
rwrist 62.9006
rhand 52.1348 -3.05657
rfingers 7.12502
rthumb 71.2822 5.80445
lclavicle -1.66234e-014 -9.93923e-015
lhumerus -48.446 2.34647 89.1173
lradius 88.7132
lwrist 61.2058
lhand -32.3396 16.1894
lfingers 7.12502
lthumb -5.57667 46.0961
rfemur -3.98524 16.4973 24.774
rtibia 10.6659
rfoot -13.1326 -19.8228
rtoes -1.10398
lfemur 5.49465 -30.0849 -11.906
ltibia 0.0349565
lfoot -12.8772 40.1677
ltoes -0.350976
